<?xml version="1.0" encoding="utf-8"?>
<!-- Generator: Adobe Illustrator 19.2.1, SVG Export Plug-In . SVG Version: 6.00 Build 0)  -->
<svg version="1.1" id="Layer_1" xmlns="http://www.w3.org/2000/svg" xmlns:xlink="http://www.w3.org/1999/xlink" x="0px" y="0px"
	 viewBox="0 0 640 640" style="enable-background:new 0 0 640 640;" xml:space="preserve">
<style type="text/css">
	.st0{fill:#20B2AA;}
	.st1{fill:#FFFFFF;}
</style>
<g id="yS2OAU.tif">
	<g>
		<path class="st0" d="M613.5,321c1.1,161-132.9,296.5-299.9,292.6C156.7,610,24,479,28.2,312.8c4-156.7,135-288.8,300.7-284.6
			C485.7,32.2,614.4,161.8,613.5,321z M164.5,216.7c-0.3,0.4-0.7,0.8-1,1.3c0.6,0.2,1.3,0.2,1.7,0.6c38,32.2,75.8,64.6,113.9,96.6
			c11.7,9.8,25.2,15.7,40.9,15.9c16.9,0.2,31.2-6.5,43.7-17c37.6-31.7,75-63.6,112.5-95.5c0.5-0.4,0.8-1,1.4-1.9
			C372.9,216.7,268.7,216.7,164.5,216.7z M268.9,323.6C233.4,357.3,198,390.8,162.1,425c106.3,0,211.5,0,317.8,0
			c-36.1-34.2-71.5-67.8-106.9-101.3C335.7,353.2,299,347.9,268.9,323.6z M489.9,223.9c-36.1,30.7-71.5,60.9-107.2,91.2
			c35.8,33.9,71.2,67.4,107.2,101.5C489.9,351.9,489.9,288.4,489.9,223.9z M259.1,315.2c-35.9-30.5-71.3-60.6-106.8-90.9
			c0,64.2,0,127.6,0,192C188.3,382.2,223.5,348.9,259.1,315.2z"/>
		<path class="st1" d="M164.5,216.7c104.2,0,208.4,0,313.1,0c-0.6,0.9-1,1.5-1.4,1.9c-37.5,31.9-74.8,63.8-112.5,95.5
			c-12.5,10.5-26.8,17.2-43.7,17c-15.6-0.2-29.2-6.1-40.9-15.9c-38.1-32-76-64.4-113.9-96.6c-0.4-0.4-1.2-0.4-1.7-0.6
			C163.9,217.5,164.2,217.1,164.5,216.7z"/>
		<path class="st1" d="M268.9,323.6c30.1,24.3,66.8,29.6,104,0c35.4,33.5,70.8,67.1,106.9,101.3c-106.3,0-211.5,0-317.8,0
			C198,390.8,233.4,357.3,268.9,323.6z"/>
		<path class="st1" d="M489.9,223.9c0,64.5,0,128.1,0,192.7c-36-34.1-71.4-67.6-107.2-101.5C418.4,284.7,453.8,254.6,489.9,223.9z"
			/>
		<path class="st1" d="M259.1,315.2c-35.6,33.7-70.8,67-106.8,101.1c0-64.4,0-127.8,0-192C187.9,254.6,223.2,284.7,259.1,315.2z"/>
	</g>
</g>
</svg>
