<?xml version="1.0" encoding="utf-8"?>
<!-- Generator: Adobe Illustrator 19.2.1, SVG Export Plug-In . SVG Version: 6.00 Build 0)  -->
<svg version="1.1" id="Layer_1" xmlns="http://www.w3.org/2000/svg" xmlns:xlink="http://www.w3.org/1999/xlink" x="0px" y="0px"
	 viewBox="0 0 204 200" style="enable-background:new 0 0 204 200;" xml:space="preserve">
<style type="text/css">
	.st0{fill:#20B2AA;}
</style>
<title>facebook</title>
<path class="st0" d="M96,192c-5.8-1.3-11.7-2.3-17.4-3.9c-35.1-9.8-61-39.8-65.5-76C6.7,61.8,41.7,16,91.8,9.4s95.7,28.5,102.8,78.9
	c5.6,39.8-17.7,80.7-54.9,96.2c-0.9,0.4-1.9,0.6-3.2,1v-60h18l2.4-23.9h-20.6c0-5.5-0.2-10.3,0.1-15.1c0.3-4.5,4.1-4.8,7.4-5
	c4.1-0.3,8.3-0.1,13.1-0.1c0-7.5,0.1-14.4-0.1-21.4c0-1-2.1-2.8-3.2-2.8c-8.6,0.1-17.4-0.2-25.9,1.1c-13.1,2.1-19.6,11.1-20.5,26.2
	c-0.2,4.3-0.2,8.7-0.1,13c0.1,3-1,4-4,4.1c-9.8,0.3-9.9,0.4-9.8,10.2c0,4.3-1.1,9.8,1.1,12.5c1.8,2.2,7.7,1.2,12.7,1.6V192H96z"/>
</svg>
