<?xml version="1.0" encoding="utf-8"?>
<!-- Generator: Adobe Illustrator 19.2.1, SVG Export Plug-In . SVG Version: 6.00 Build 0)  -->
<svg version="1.1" id="Layer_1" xmlns="http://www.w3.org/2000/svg" xmlns:xlink="http://www.w3.org/1999/xlink" x="0px" y="0px"
	 viewBox="0 0 429 425" style="enable-background:new 0 0 429 425;" xml:space="preserve">
<style type="text/css">
	.st0{fill:#20B2AA;}
	.st1{fill:#FFFFFF;}
</style>
<title>instagram</title>
<path class="st0" d="M198,12h30c4.4,0.6,8.9,1.3,13.3,1.9C319.2,24.3,385.8,82.7,406,158.4c3,11.3,4.7,23,7,34.6v39
	c-0.4,1.2-0.7,2.5-0.9,3.8c-8.9,79.6-67.3,148.1-144.5,169.1c-11.3,3.1-23,4.8-34.5,7.1h-39c-1.1-0.3-2.2-0.6-3.4-0.8
	c-84-9.8-151.6-69.3-171.9-151.4C16.1,249,14.9,237.9,13,227v-30c0.3-1.6,0.7-3.2,0.9-4.8c7.8-83,68.9-154.1,149.8-174.1
	C174.9,15.4,186.6,14,198,12z M120.9,211.8c0,23.5-0.1,47,0,70.5c0.1,13.1,7.7,21.1,20.8,22.2c1.5,0.1,3,0.1,4.5,0.1h133.5
	c1.5,0,3,0,4.5-0.1c13.5-1.1,21.1-8.9,21.1-22.4c0.2-46.3,0.3-92.6,0.2-138.9c0-14.4-9.3-23.2-23.7-23.2L144.4,120
	c-15.5,0-23.5,7.8-23.5,23.3C120.9,166.1,120.8,188.9,120.9,211.8z"/>
<path class="st1" d="M120.9,211.8c0-22.8,0-45.7,0-68.5c0-15.4,8-23.2,23.5-23.3l137.4-0.1c14.4,0,23.6,8.8,23.7,23.2
	c0,46.3,0,92.6-0.2,138.9c-0.1,13.5-7.7,21.3-21.1,22.4c-1.5,0.1-3,0.1-4.5,0.1H146.2c-1.5,0-3,0-4.5-0.1
	c-13.1-1.1-20.7-9.1-20.8-22.2C120.8,258.7,120.9,235.2,120.9,211.8z M134.9,198.8c0,2.3,0,4.3,0,6.2c0,24.5,0,49,0,73.5
	c0,10.6,1.5,12.2,12,12.2c44.2,0,88.3,0,132.5,0c1.8,0,3.7-0.2,5.5-0.4c3.9-0.5,6-2.7,6.3-6.5c0.2-2,0.3-4,0.3-6c0-23.5,0-47,0-70.5
	c0-2.8,0-5.6,0-8.5H269c3.2,17,0.7,32.6-9.6,46.3c-10.2,13.5-23.6,22.2-40.6,23.7c-15.3,1.3-29.4-2.4-41.5-12.5
	c-18.1-15.1-23.5-34.7-19.8-57.5L134.9,198.8L134.9,198.8z M255.5,212.4c0.2-23.1-19-43.1-41.5-43.2c-23.7-0.4-43.3,18.6-43.7,42.3
	c0,0.1,0,0.2,0,0.3c-0.2,23,18.8,42.6,41.9,42.9c23.6,0.4,43-18.5,43.3-42C255.6,212.6,255.6,212.5,255.5,212.4L255.5,212.4z
	 M273.8,169.1c3,0,6,0.1,9,0c5.9-0.2,8.3-2.2,8.5-8.1c0.2-6.8,0-13.6-0.1-20.4c-0.1-4.1-2.3-6.8-6.4-6.9c-7.3-0.3-14.6-0.3-21.9,0
	c-4.2,0.2-6.7,2.9-6.8,7.2c-0.1,7-0.2,14,0,20.9c0.2,4.7,3,7.2,7.8,7.3C267.2,169.2,270.5,169.1,273.8,169.1L273.8,169.1z"/>
<path class="st0" d="M134.9,198.8h22.5c-3.7,22.8,1.6,42.4,19.8,57.5c12.1,10,26.2,13.8,41.5,12.5c17-1.5,30.5-10.1,40.7-23.7
	c10.3-13.7,12.8-29.3,9.6-46.3h22.5c0,3,0,5.7,0,8.5c0,23.5,0,47,0,70.5c0,2-0.1,4-0.3,6c-0.3,3.9-2.4,6.1-6.3,6.5
	c-1.8,0.2-3.6,0.4-5.5,0.4c-44.2,0-88.3,0-132.4,0c-10.5,0-12-1.6-12-12.2c0-24.5,0-49,0-73.5C134.9,203,134.9,201.1,134.9,198.8z"
	/>
<path class="st0" d="M255.6,212.4c-0.2,23.6-19.5,42.5-43,42.3c-0.1,0-0.2,0-0.3,0c-23-0.4-42.1-19.9-41.9-42.9
	c0.2-23.7,19.6-42.9,43.3-42.7c0.1,0,0.2,0,0.3,0C236.6,169.4,255.7,189.4,255.6,212.4z"/>
<path class="st0" d="M273.8,169.1c-3.3,0-6.6,0.1-10,0c-4.7-0.1-7.6-2.6-7.8-7.3c-0.2-7-0.2-14,0-20.9c0.1-4.3,2.6-7,6.8-7.2
	c7.3-0.3,14.6-0.3,21.9,0c4,0.2,6.3,2.8,6.4,6.9c0.1,6.8,0.3,13.6,0.1,20.4c-0.2,5.9-2.6,7.9-8.5,8.1
	C279.8,169.2,276.8,169.1,273.8,169.1z"/>
</svg>
